<?xml version="1.0" standalone="no"?>
<!DOCTYPE svg PUBLIC "-//W3C//DTD SVG 20010904//EN"
 "http://www.w3.org/TR/2001/REC-SVG-20010904/DTD/svg10.dtd">
<svg version="1.0" xmlns="http://www.w3.org/2000/svg"
 width="225.000000pt" height="225.000000pt" viewBox="0 0 225.000000 225.000000"
 preserveAspectRatio="xMidYMid meet">

<g transform="translate(0.000000,225.000000) scale(0.100000,-0.100000)"
fill="#000000" stroke="none">
<path d="M1015 2243 c-42 -7 -65 -31 -65 -67 0 -85 -53 -180 -124 -221 -89
-52 -212 -40 -293 30 -57 49 -79 46 -155 -22 -143 -130 -163 -173 -109 -235
48 -56 65 -97 65 -168 1 -133 -97 -235 -235 -247 -90 -9 -94 -17 -94 -183 0
-165 4 -174 93 -184 214 -24 305 -260 162 -423 -49 -55 -42 -73 68 -184 112
-114 135 -122 196 -69 80 71 194 84 286 34 77 -42 130 -129 130 -214 0 -22 8
-48 19 -61 19 -23 24 -24 159 -24 124 0 142 2 161 19 13 12 21 31 21 51 0 48
25 122 54 160 83 109 255 123 363 30 65 -55 80 -50 194 63 111 110 121 134 73
188 -77 88 -92 197 -39 292 43 79 130 132 215 132 22 0 48 8 61 19 23 19 24
24 24 159 0 165 -5 176 -88 187 -69 9 -125 35 -165 74 -44 45 -63 83 -69 147
-8 72 11 132 58 189 58 70 55 81 -59 196 -112 114 -135 122 -196 69 -50 -44
-102 -63 -172 -63 -134 1 -244 111 -244 243 0 21 -8 47 -18 60 -16 19 -28 22
-132 25 -63 2 -128 1 -145 -2z m323 -505 c183 -65 335 -217 399 -400 35 -97
43 -271 19 -366 -20 -74 -61 -172 -73 -172 -5 0 -70 62 -146 138 l-138 138 16
59 c18 70 19 106 4 177 -41 196 -233 337 -427 314 -125 -15 -123 -41 9 -180
l101 -106 -7 -57 c-11 -92 -17 -101 -72 -108 -26 -3 -61 -9 -76 -12 -25 -4
-40 7 -137 102 -73 72 -114 106 -126 103 -34 -6 -45 -46 -42 -148 3 -77 9
-106 30 -152 37 -80 107 -151 187 -191 56 -27 79 -33 153 -35 60 -3 102 1 132
11 l43 15 144 -144 c159 -160 155 -147 62 -189 -83 -39 -163 -55 -268 -55
-187 0 -322 56 -455 190 -135 135 -190 266 -190 455 0 190 54 319 190 455 93
93 182 146 295 174 96 25 281 16 373 -16z"/>
</g>
</svg>
